# xmcd
#
# Track frame offsets: 
#        150
#        11640
#        26460
#        42988
#        57118
#        69457
#
# Disc length: 1132 seconds
#
# Revision: 0
# Processed by: cddbd v1.5.2PL0 Copyright (c) Steve Scherf et al.
# Submitted via: ExactAudioCopy v0.99pb3
#
DISCID=45046a06
DTITLE=Power Man's Grave - Power Man's Grave 1999
DYEAR=1999
DGENRE=Country Rock
TTITLE0=Big Big Love
TTITLE1=Tempted
TTITLE2=Tonight The Bottle Let Me Down
TTITLE3=Cry On The Shoulder Of The Road
TTITLE4=That's What I Like About You
TTITLE5=What Kind Of Fool
EXTD=
EXTT0=
EXTT1=
EXTT2=
EXTT3=
EXTT4=
EXTT5=
PLAYORDER=
